# xmcd
#
# Track frame offsets: 
#        150
#        24417
#        49004
#        64127
#        76519
#        100874
#        116989
#        137084
#        153255
#        181392
#        201942
#        215225
#        243740
#        258597
#        276026
#        289250
#        312093
#        326045
#        343704
#        356682
#        376281
#
# Disc length: 5317 seconds
#
# Revision: 0
# Processed by: cddbd v1.5.2PL0 Copyright (c) Steve Scherf et al.
# Submitted via: ExactAudioCopy v0.95b4
#
DISCID=4414c315
DTITLE=Various Artist - Electric Blues Vol.4 1970-2005 CD 2
DYEAR=1900
DGENRE=Blues
TTITLE0=B. B. King - The Thrill Is Gone
TTITLE1=Johnny Winter - Memory Paib
TTITLE2=Freddie King - Going Down
TTITLE3=J. Geils Band - Homework
TTITLE4=Otis Rush - Right Place, Wrong Time
TTITLE5=Hound Dog Taylor - Give Me Back My Wig
TTITLE6=Chick Willis - Stoop Down Baby
TTITLE7=Rory Gallagher /Should've Learnt My Lesson
TTITLE8=Roy Buchanan - After Hours
TTITLE9=Son Seals - Your Love Is Like A Cancer
TTITLE10=Elvin Bishop Group - Stealin' Watermelons
TTITLE11=Luther Allison - Luther's Blues
TTITLE12=James Cotton Band - Boogie Thing
TTITLE13=ZZ Top - La Grange
TTITLE14=Fentop Robinson - Somebody Loan Me A Dime
TTITLE15=Junior Wells - The Train I Ride
TTITLE16=Delbert McClinton - Before You Accuse Me
TTITLE17=Bonnie Raitt - Runaway
TTITLE18=Koko Taylor - Hey Bartender
TTITLE19=Roomful Of Blues - Duke's Blues
TTITLE20=Eddie Clearwater - Bad Dream
EXTD=
EXTT0=
EXTT1=
EXTT2=
EXTT3=
EXTT4=
EXTT5=
EXTT6=
EXTT7=
EXTT8=
EXTT9=
EXTT10=
EXTT11=
EXTT12=
EXTT13=
EXTT14=
EXTT15=
EXTT16=
EXTT17=
EXTT18=
EXTT19=
EXTT20=
PLAYORDER=
